<svg id="Layer_1" data-name="Layer 1" xmlns="http://www.w3.org/2000/svg" width="956.2646" height="398.5056" viewBox="0 0 956.2646 398.5056"><defs><style>.cls-1{fill:#2e4ac0;}</style></defs><path class="cls-1" d="M1978.04,466.42l-.0277.089a10.7092,10.7092,0,0,1-.27,1.1609C1977.7044,468.131,1977.8222,468.1322,1978.04,466.42Z" transform="translate(-1977.7354 -279.1108)"/><path class="cls-1" d="M2459.8927,467.4283l.0071-.0047a2.2957,2.2957,0,0,1,.5466-.5009C2460.1885,467.0834,2459.9155,467.2941,2459.8927,467.4283Z" transform="translate(-1977.7354 -279.1108)"/><path class="cls-1" d="M2909.2105,482.7219c-7.6171-10.0341-17.2241-19.7538-29.0639-24.59-12.3612-5.0493-25.5329-5.6038-38.6671-4.5377.0018-.1522.0138-.3052.0113-.4571-.5429-34.1841-11.2362-68.4383-27.8847-98.1252-8.125-14.488-18.0788-28.0854-30.2611-39.4314a118.2065,118.2065,0,0,0-19.4713-15.0732,116.1731,116.1731,0,0,0-23.913-10.4044c-42.5322-13.9622-87.8855-13.4107-131.5212-5.1109-21.8825,4.1622-44.4214,9.5573-64.372,19.726-18.1772,9.2649-32.8432,23.46-44.3122,40.17-21.2337,30.9373-29.0743,69.8442-29.7612,106.82-.01.5255-.0123,1.0509-.0187,1.5764-10.2192-.5747-20.723-.148-30.4739,2.9131-13.0407,4.094-23.5474,12.2983-32.7076,22.2271-15.9678,17.307-26.7354,39.5423-31.8344,62.4312-4.7478,21.3125-4.1843,44.4395,2.9867,65.1549a108.4271,108.4271,0,0,0,35.72,49.5938c17.4916,13.8013,39.8331,22.12,62.193,22.01a10.7935,10.7935,0,0,0,3.4559-.6,7.6016,7.6016,0,0,0,5.3492-1.1017c5.8105-3.4179,10.4578-10.8543,10.241-17.7377q-2.29-72.6425-3.3283-145.317-.2937-20.6736-.4855-41.3486c-.0307-3.2877-1.6145-5.7385-3.9057-6.7879a19.8483,19.8483,0,0,0,3.7784-11.5851c-.2521-8.4257-.1319-16.8592.4406-25.27q.1085-1.592.2383-3.1824a11.0911,11.0911,0,0,0,.12-1.204c.2156-2.008.4231-4.016.6789-6.02q.8085-6.3324,1.99-12.61,1.1811-6.2379,2.765-12.3911c.1119-.4326.79-2.8552.6472-2.4072.0864-.2917.1627-.5485.1984-.6668q.9652-3.2177,2.0584-6.3954,2.0269-5.8743,4.5191-11.5746c.3041-.6914.6183-1.3782.931-2.0656.0593-.118.1273-.2537.2094-.4182q1.4605-2.9339,3.066-5.7931,1.3863-2.4623,2.8834-4.86.8043-1.2862,1.64-2.5519c.0747-.1132.1507-.2254.2266-.3379l.032-.0437a118.0153,118.0153,0,0,1,7.5657-9.4007c.5744-.6357,1.2179-1.2344,1.7584-1.8976-.1817.223-.3318.4066-.467.5716.2533-.2935.5211-.5931.71-.7769q2.3282-2.2671,4.8016-4.3785,2.1581-1.84,4.422-3.55c.2416-.1826.4848-.3626.7277-.5432a30.5008,30.5008,0,0,0,2.782-1.8814,106.4393,106.4393,0,0,1,13.6126-7.3086c.8836-.3982,1.7743-.7809,2.6666-1.1594.0563-.01,2.1286-.8457,2.4572-.97q3.6822-1.3956,7.428-2.6149c9.9689-3.2668,20.18-5.8528,30.4177-8.1224,40.3529-8.9457,82.2112-11.4556,122.9655-.9988,15.8789,4.0742,31.3849,10.2382,44.615,20.6989q2.05,1.6214,4.0253,3.3357c.408.354.8086.7171,1.2169,1.0706.04.0344.29.26.4581.41.0987.091.1827.1684.2033.1883.4944.4713.9909.94,1.4807,1.4158q4.1739,4.0526,7.9873,8.4548a165.1633,165.1633,0,0,1,14.0972,18.8642,198.4685,198.4685,0,0,1,12.0138,21.5112c.2416.5017.48,1.005.7182,1.508q.6,1.3126,1.1844,2.6323,1.2521,2.8394,2.4234,5.7133,2.3335,5.7262,4.3417,11.5781a213.0316,213.0316,0,0,1,6.5723,23.3528q1.2623,5.7354,2.1787,11.54c.0381.2423.1429.937.2269,1.49.0452.3767.2536,1.9223.2819,2.16q.3344,2.7928.5765,5.5958.4668,5.4382.5491,10.897a8.8541,8.8541,0,0,0,.742,3.5078,21.7525,21.7525,0,0,0-6.5349,14.8653q-.6794,72.6755-2.61,145.3316-.5506,20.6685-1.2034,41.334c-.1439,4.5574,2.9864,7.4117,6.7187,7.3176a5.1907,5.1907,0,0,0,2.3628.5286c45.019.2228,84.51-30.0579,103.1218-69.857C2941.8833,567.8165,2935.7562,517.6932,2909.2105,482.7219Zm-483.903,145.4764q-1.25-1.0585-2.4662-2.1587c-.0642-.0718-1.0294-.9864-1.2237-1.176q-2.6283-2.5634-5.0716-5.3077a99.931,99.931,0,0,1-15.0823-22.3544c-.06-.1226-.3373-.7126-.49-1.0337-.0848-.192-.1685-.38-.1792-.405-.4806-1.1251-.9584-2.25-1.4048-3.389q-1.3247-3.3805-2.3939-6.8539a101.9806,101.9806,0,0,1-3.1921-13.6136c-.0824-.5026-.158-1.0065-.2331-1.51-.0129-.122-.0276-.2575-.0455-.4237-.12-1.1193-.2426-2.2372-.3382-3.359q-.3066-3.6066-.3739-7.2282-.0622-3.3815.0812-6.7628c.0547-1.289.139-2.5753.23-3.8622.0037-.0519.0135-.1557.0258-.2769.0649-.5408.1544-1.2948.1574-1.322a116.1834,116.1834,0,0,1,2.5108-13.8237c.1457-.5951.3517-1.2188.5316-1.8437a3.8518,3.8518,0,0,1,.16-.8081c.0378-.1171.0731-.2352.11-.3528.016-.0941.0412-.19.0526-.2833-.0086.071-.0166.1285-.0249.1943.1464-.4707.2893-.9427.44-1.4122q1.1119-3.4678,2.4385-6.862c.7822-2.0019,1.6492-3.9611,2.5129-5.9273.1276-.2589.2552-.5178.3855-.7753q.9861-1.949,2.0471-3.859,1.6483-2.97,3.4716-5.8381c.2524-.3968,1.6123-2.89,1.8648-2.8378.0064.0013-2.2135,3.0821-.5267.7937.3837-.5206.7594-1.047,1.1462-1.5654q2.5167-3.3752,5.2905-6.5484.5147-.5879,1.0368-1.1689c.0851-.0944,2.3982-2.4006.8944-1.0015-1.39,1.2938.2582-.2428.5931-.5671q.9343-.9054,1.8983-1.7795,1.5413-1.3914,3.1662-2.6878c.4037-.3209.8388-.6159,1.23-.95.0575-.0489.0984-.0857.1362-.12.059-.036.11-.067.1811-.1105,1.1748-.7271,2.3339-1.47,3.5478-2.132q.91-.4962,1.8423-.9537c.1454-.0713,1.3009-.5872,1.7375-.7931.2641-.101.5546-.2137.5737-.22.8474-.29,1.6932-.5794,2.551-.8384q2.0583-.6216,4.1591-1.0825,2.3686-.5236,4.7727-.8652c.5356-.0767,1.0721-.1448,1.6093-.2092.2278-.0273,1.4328-.1327,1.5727-.1512a117.0039,117.0039,0,0,1,18.199.391,9.2992,9.2992,0,0,0,5.2588-1.2066,17.8161,17.8161,0,0,0-.47,4.138q.6793,72.6755,2.61,145.3316.2923,10.9659.6149,21.931c-13.4266-1.724-25.4469-6.4549-37.461-14.2439A104.3017,104.3017,0,0,1,2425.3075,628.1983Zm108.0646-293.0117.0815-.0606C2534.8258,334.0921,2533.9759,334.7616,2533.3721,335.1866Zm268.8108,54.3858c.0169.0365.0329.0735.05.11C2802.0747,389.34,2801.8038,388.7453,2802.1829,389.5724Zm107.8786,202.9423c.0339-.1327.0646-.2572.0886-.3609C2910.1261,592.2715,2910.099,592.3891,2910.0615,592.5147Zm2.94-18.6416a16.905,16.905,0,0,1-.2417,3.8524c.0228-.0708.2448-2.2436.0671-.8163-.0794.6379-.1378,1.2787-.2153,1.9169q-.4371,3.59-1.1179,7.1444c-.4255,2.2131-.947,4.4-1.4924,6.5855-.0591.2352-.1015.4088-.1359.5532-.0855.2376-.17.467-.2282.6542q-.58,1.8462-1.2317,3.6691-1.1078,3.096-2.4246,6.112c-.16.3657-.3487.7358-.5172,1.1076-.4077.804-.8129,1.609-1.2415,2.4032q-1.63,3.0255-3.4706,5.9315c-.1851.2929-.971,1.4569-1.2969,1.9549-.3714.5138-.765,1.0571-.9322,1.2807q-1.9233,2.5713-4.0057,5.0177-1.04,1.2231-2.1184,2.4141c-.3849.4248-.78.8406-1.1659,1.2643a121.0762,121.0762,0,0,1-9.8,8.6272c-.1728.1339-1.5757,1.0466-2.3788,1.66.4307-.2681.804-.39-.1706.2513q-.1887.1241-.3761.25c-.0046.0113-.0144.0251-.0132.0332a.1109.1109,0,0,1,.0062-.0285c-.508.3383-1.0131.68-1.5254,1.0121q-3.2638,2.116-6.68,3.9821-3.2081,1.75-6.5376,3.2648c-.5971.2715-2.5858,1.1006-2.2592.9876-1.0344.4023-2.0723.7949-3.12,1.1634a93.1737,93.1737,0,0,1-14.5064,3.8378c-2.1851.3906-4.3887.7087-6.5991.9281-.2278.0159-.6742.05-.8218.0559-.761.0316-1.5207.0864-2.282.1152q-1.0344.0392-2.0686.051,2.1206-69.1112,3.1131-138.2506.2348-16.5319.3984-33.0648c9.1225-.5538,18.5194-.3349,27.2376,2.3664,8.6569,2.6825,17.0156,9.1888,22.9982,15.8866a110.9785,110.9785,0,0,1,16.1771,23.8144c.2927.5777.5762,1.1592.8622,1.74.0043.0086.1377.2884.2527.5293.1537.3436.4612,1.02.5116,1.1355q.2934.6669.5787,1.3369,1.5191,3.5751,2.7966,7.2473a117.282,117.282,0,0,1,3.8206,13.5385c.5171,2.37.9464,4.7539,1.33,7.1485.0338.21.0578.3553.0774.4695.0111.1183.029.2851.056.5293.1605,1.4439.3161,2.8864.4329,4.3347A111.6354,111.6354,0,0,1,2913.0015,573.8731Z" transform="translate(-1977.7354 -279.1108)"/><path class="cls-1" d="M2103.8586,466.7452c-.66.7639-1.2105,1.4767,0,0Z" transform="translate(-1977.7354 -279.1108)"/></svg>