<svg id="Layer_1" data-name="Layer 1" xmlns="http://www.w3.org/2000/svg" width="1324.3789" height="350.2848" viewBox="0 0 1324.3789 350.2848"><defs><style>.cls-1{fill:#2e4ac0;}</style></defs><path class="cls-1" d="M1276.9054,466.9063c.0507.1121.14.2881.285.5384l-.0012-.0036C1277.0883,467.2664,1276.9967,467.0864,1276.9054,466.9063Z" transform="translate(-1136.0675 -292.0331)"/><path class="cls-1" d="M1775.4771,466.7625c-.66.73-1.2292,1.4194,0,0Z" transform="translate(-1136.0675 -292.0331)"/><path class="cls-1" d="M1525.8065,467.7669c.0083-.0239.0163-.0488.0242-.0734.0274-.111.0582-.2212.0828-.3328.07-.32.1294-.6428.1909-.965-.0726.2693-.1913.7616-.3684,1.56C1525.7582,467.892,1525.7849,467.83,1525.8065,467.7669Z" transform="translate(-1136.0675 -292.0331)"/><path class="cls-1" d="M1778.7974,307.6491a229.7347,229.7347,0,0,0-59.2648,31.629c-15.9456,11.7627-28.9187,26.7472-44.3515,39.0736q-1.6962,1.3553-3.439,2.6508c-.317.2348-.6379.4645-.9565.6974-.0928.06-.1943.1251-.3139.2027-2.1255,1.3788-4.2617,2.723-6.4936,3.9256q-1.6617.8952-3.3707,1.7c-.416.1953-.8394.3783-1.2594.5674.4541-.1927.3813-.1057-.4166.1894-.0145.0069-.0292.0128-.0434.02l.0375-.0174-.0067.0025c-.9393.3465-1.8848.6626-2.8342.9645q-.76-16.0818-2.3779-32.1286c-1.193-11.6475-2.3909-23.6173-6.4786-34.6762-3.5257-9.5385-9.3745-19.7168-19.3477-23.6253-6.7414-2.642-13.6723-2.6693-20.7956-2.8406q-11.0078-.2648-22.0155-.5117-21.3866-.48-42.7746-.8927-86.807-1.6755-173.6308-2.2487-86.5053-.571-173.0131-.0462-21.0756.1278-42.1513.3206a10.5858,10.5858,0,0,0-1.6468.1483,7.8607,7.8607,0,0,0-4.829,1.16,21.61,21.61,0,0,0-10.2406,17.7376q-.2432,66.5214-.4056,133.0433-.0963,33.6493-.2014,67.2989-.0474,14.8629-.1011,29.7259c-.048,13.7807.0163,27.9718,4.0437,41.2833,6.4414,21.2908,22.657,38.6034,42.6119,48.0525,24.0424,11.3848,50.9559,10.7918,76.8833,9.25,57.4949-3.4189,114.89-2.0555,172.4077.0632,52.03,1.9165,104.6985,5.6534,155.5667-8.07,12.5909-3.3967,24.4249-7.6124,34.9635-15.458a62.17,62.17,0,0,0,18.0576-21.4418,64.4769,64.4769,0,0,0,6.6639-23.4358c1.4389-14.8726,2.8517-29.7476,4.1557-44.6328q.5295-6.042,1.0266-12.0916a5.3339,5.3339,0,0,0,1.4214,3.39q25.9555,24.3734,51.9114,48.7465c8.3486,7.84,16.6658,15.7142,25.0515,23.5143,8.0451,7.4835,16.2365,14.8563,25.9726,20.0917,8.06,4.3339,16.55-8.6879,17.3944-15.1211q7.2833-55.4914,12.6318-111.2125,2.7636-28.8444,5.0375-57.7336c1.399-17.8345,2.6795-35.7076,2.5261-53.6085-.1771-20.6138-2.3189-41.4068-8.0085-61.27C1785.4678,308.8014,1782.2366,306.4189,1778.7974,307.6491ZM1157.91,555.3238c.0642.452.1454,1.2945,0,0Zm466.595,33.6454a3.05,3.05,0,0,1-.3349.5061c.2011-.31.3438-.53.3361-.5089Zm9.5824-97.14c-.8406,14.0608-1.9134,28.1067-3.1131,42.141q-.4073,4.7631-.8338,9.5242c-.0569.62-.28,3.0888-.3044,3.3506q-.2547,2.7834-.5135,5.5666-.9772,10.5051-1.9973,21.0063c-.3437,3.5622-.5027,7.1974-1.1742,10.7248.222-.8265.0105.4282-.2736,1.2978-.1089.44-.23.8778-.325,1.32.0861-.4028.1623-.7514.23-1.0584-.2189.6311-.45,1.2579-.7016,1.8767-.1286.3158-.2691.6265-.3979.9419-.0575.1416-.1036.2559-.14.35-.277.4053-.5617.7964-.8108,1.1535-.641.829-1.29,1.6484-1.981,2.4373-.1522.1739-.333.3513-.5051.5318-.4748.4473-.95.893-1.4433,1.3217q-1.1313.9834-2.3216,1.8964c-.1891.1452-.7714.4956-1.07.7411-.0682.0436-.1353.09-.2041.133a60.4864,60.4864,0,0,1-6.0838,3.37q-1.4759.7131-2.99,1.3482c-.1445.05-.32.1111-.5445.19-.8071.2816-1.6087.5766-2.42.8465-6.0607,2.0157-12.2816,3.6527-18.4856,5.1607a277.474,277.474,0,0,1-37.0779,6.3553c-10.0863,1.04-22.9678,1.5182-34.3587,1.5579-12.5555.0437-25.1077-.3469-37.6541-.7848-56.2223-1.9626-112.4871-4.7587-168.7556-3.1379-13.5634.3907-27.097,1.1762-40.6414,1.9554-13.4419.7732-26.9706,1.3-40.3858-.1656-12.2687-1.34-21.171-3.5092-31.6057-8.7963a82.7831,82.7831,0,0,1-12.9826-8.1533q-1.4431-1.1074-2.8339-2.28c-.4643-.3916-.9215-.7908-1.3787-1.1905-.0814-.0715-.1439-.1254-.1961-.1706-.0268-.0254-.0471-.0451-.0787-.075a74.04,74.04,0,0,1-5.349-5.6409,68.6567,68.6567,0,0,1-8.7691-13.031c-.2152-.4179-.4228-.841-.6291-1.2641-.103-.2284-.2653-.5849-.3111-.6972-.4812-1.1777-.9661-2.3506-1.3965-3.5484a68.6575,68.6575,0,0,1-2.5578-9.0955q-.4737-2.2518-.8136-4.5317c-.02-.1736-.0424-.38-.07-.6346-.0848-.7713-.1675-1.5423-.24-2.3149-.3093-3.2989-.47-6.6107-.5577-9.9223-.1553-5.8659-.0837-11.7363-.0631-17.6034q.1111-31.1689.1987-62.3379.1972-67.0389.3935-134.078.0151-4.7086.0323-9.4174,77.8985-.63,155.8-.3917,84.3058.2767,168.6034,1.5936,42.4636.6635,84.9225,1.59,10.3792.2267,20.7575.469c6.87.1605,13.8856-.0628,20.7205.6908a18.7844,18.7844,0,0,1,6.9536,1.8352,22.4371,22.4371,0,0,1,2.6546,1.6007c.4231.2963.8148.632,1.236.9289.1285.0905.23.159.3164.2154.0639.0768.142.1678.2389.2771a40.2985,40.2985,0,0,1,3.9383,5.0328c.5955.9338,1.1484,1.8957,1.6652,2.8751.1408.2667.2721.5383.4071.808-.0726-.1032.6161,1.4085.6786,1.5628a79.86,79.86,0,0,1,4.1012,14.2842q.3592,1.7962.6626,3.6027.1517.8991.2912,1.8c.0175.1145.0624.4073.1057.691.0461.3351.1082.7828.1273.9332.0809.6457.1571,1.2919.2328,1.9384q.3237,2.7668.6161,5.5372c1.4752,13.9421,2.4065,27.9386,2.8966,41.9491C1636.4961,436.4919,1635.74,464.1989,1634.0875,491.8287Zm-9.35,96.7468c.3327-.7152.8163-1.807.8209-1.8667A4.4935,4.4935,0,0,1,1624.7375,588.5755Zm146.7216-156.1q-1.0293,13.5565-2.19,27.103-.5277,6.1962-1.0795,12.39c-.0326.3672-.0572.6466-.076.8586-.02.2139-.0458.5007-.08.8784q-.17,1.8578-.3391,3.7157-.3414,3.7154-.6912,7.43-2.5666,27.2409-5.6011,54.4349-2.061,18.4646-4.3478,36.9027c-3.2093-2.6021-6.244-5.3078-9.0489-7.9259q-12.6147-11.775-25.1613-23.623l-51.001-47.8912c-2.0167-1.8939-3.6521-2.7541-6.5287-2.0836-2.9286.6826-5.9949,3.2046-7.7862,5.4991a23.7653,23.7653,0,0,0-4.5695,8.827c2.5145-31.8291,4.2067-63.7862,3.8236-95.7023,15.1908-6.2444,27.9785-17.5414,39.7873-28.8216,7.1064-6.7885,14.1614-13.61,21.8292-19.7733q2.9355-2.3595,5.9556-4.6115c1.0915-.8137,2.1977-1.6057,3.2978-2.4071.6518-.4473,1.3009-.8984,1.9558-1.3409q6.4655-4.3674,13.243-8.2459,7.7061-4.4088,15.768-8.1529,3.7767-1.7532,7.6226-3.3513c.2377-.0975.5012-.2054.5949-.242.4025-.1571.8056-.3124,1.2077-.4694,3.6124,14.5895,4.9849,27.97,5.384,43.6819C1773.877,397.2169,1772.7957,414.8734,1771.4591,432.4759Z" transform="translate(-1136.0675 -292.0331)"/><path class="cls-1" d="M1559.3012,467.08c-.1113.0472-.25.1091-.4225.1916l.0058-.0022C1559.022,467.2034,1559.1622,467.1422,1559.3012,467.08Z" transform="translate(-1136.0675 -292.0331)"/><path class="cls-1" d="M1978.04,466.42l-.0277.089a10.7092,10.7092,0,0,1-.27,1.1609C1977.7044,468.131,1977.8222,468.1322,1978.04,466.42Z" transform="translate(-1136.0675 -292.0331)"/><path class="cls-1" d="M2459.8927,467.4283l.0071-.0047a2.2957,2.2957,0,0,1,.5466-.5009C2460.1885,467.0834,2459.9155,467.2941,2459.8927,467.4283Z" transform="translate(-1136.0675 -292.0331)"/><path class="cls-1" d="M2103.8586,466.7452c-.66.7639-1.2105,1.4767,0,0Z" transform="translate(-1136.0675 -292.0331)"/></svg>