<svg id="Layer_1" data-name="Layer 1" xmlns="http://www.w3.org/2000/svg" width="541.2172" height="799.0491" viewBox="0 0 541.2172 799.0491"><defs><style>.cls-1{fill:#2e4ac0;}.cls-2{fill:#c6a893;}</style></defs><path class="cls-1" d="M2456.3593,611.112l-.0436.14a16.8766,16.8766,0,0,1-.4246,1.8263C2455.8311,613.8043,2456.0163,613.8061,2456.3593,611.112Z" transform="translate(-2043.7828 185.5588)"/><path class="cls-2" d="M2218.8879-19.9835a6.0136,6.0136,0,0,0-.7291.274C2218.3067-19.7666,2218.58-19.8695,2218.8879-19.9835Z" transform="translate(-2043.7828 185.5588)"/><path class="cls-2" d="M2308.4255,53.3864c-1.038.0182-.6157.13,0,0Z" transform="translate(-2043.7828 185.5588)"/><path class="cls-2" d="M2291.4158,55.6043a6.9449,6.9449,0,0,1-.7755-.5192,29.5357,29.5357,0,0,0-9.4141,6.8738c-5.9545,6.84-8.1413,16.5648-8.4,25.4058-.5139,17.5968,8.457,34.839,23.6891,43.8022,6.087,3.5816,13.4614,6.1529,20.048,5.3977-.0788-.031,2.2991-.48,2.584-.5539.3459-.09.6062-.1559.8315-.2118a3.4975,3.4975,0,0,1,.5807-.27,26.4717,26.4717,0,0,0,4.0631-1.9758,50.841,50.841,0,0,0,8.894-6.8749c6.4883-6.1782,12.33-13.5176,14.5931-22.3476a34.5742,34.5742,0,0,0-4.3776-26.6564,58.2337,58.2337,0,0,0-19.51-19.1291c-3.9052-2.321-8.225-4.4231-12.7814-5.045.8615.1176-3.8356-.1415-2.2432-.1117-.1984-.0037-.3636-.0046-.5147-.0041-.111.0744-.2325.1565-.3686.2489C2303.9874,56.5719,2296.2444,58.38,2291.4158,55.6043Z" transform="translate(-2043.7828 185.5588)"/><path class="cls-2" d="M2308.9466,53.2085c.05-.026.1015-.0544.1534-.0842l-.0351.0059C2309.0272,53.155,2308.9889,53.18,2308.9466,53.2085Z" transform="translate(-2043.7828 185.5588)"/><path class="cls-2" d="M2208.43-7.46a132.5494,132.5494,0,0,1-.4637,22.9817c-1.5341,15.2744-5.3442,30.1905-7.9251,45.2972-2.6254,15.3661-3.1907,30.7785-3.0323,46.34.2781,27.3554-.3386,59.7115,17.5995,82.3692,7.9729,10.07,18.2007,16.033,30.4551,19.4285.32.0888.5175.1457.6372.1825.06.0132.1078.0237.1784.04.9771.2182,1.9605.4035,2.9454.5837q2.2267.4076,4.4686.7215c3.0109.4253,6.0368.7343,9.0691.9591,1.0336.0767,2.0685.1391,3.1034.1957.0555,0,.1037.0007.1679.0009,1.5232.01,3.0478.084,4.5714.1052,3.38.0473,6.76.0289,10.141-.013q11.8323-.1461,23.655-.7027,6.3636-.3109,12.72-.77c1.815-.1322,3.6285-.2851,5.443-.4269-3.0328.2369,1.3671-.129,2.2951-.2219q12.2132-1.2209,24.34-3.1661c3.89-.6312,7.7626-1.3471,11.6337-2.0843.35-.0665.6134-.1156.8173-.1529.2585-.0592.5876-.1336,1.0131-.2287q2.1722-.4851,4.3339-1.0124c3.2507-.7948,6.4428-1.7648,9.6671-2.6473.2927-.0871.5844-.1716.8538-.2667q2.0985-.741,4.17-1.5528,1.377-.5406,2.7393-1.1154c.1652-.07.5138-.2235.876-.3832.7518-.3791,2.2264-1.1036,2.5859-1.2936,1.2879-.6806,2.5239-1.4852,3.8219-2.14.1078-.0541.2-.1.2785-.139q.78-.5256,1.5446-1.0677a44.2767,44.2767,0,0,0,12.0783-11.7,66.6675,66.6675,0,0,0,8.6036-15.85c10.7458-27.1625,11.8917-58.5929,11.3128-87.4363-.3222-16.046-1.5073-32.0634-3.1038-48.0291-1.3211-13.2113-1.7566-27.4226-11.4038-37.5654a50.3635,50.3635,0,0,0-14.6391-10.6568,82.3962,82.3962,0,0,0-9.52-3.8257c-2.56-.8542-6.6685-1.9792-7.95-2.2562a172.8112,172.8112,0,0,0-20.5559-2.9536c-4.0485-.3754-8.1043-.6751-12.1624-.927-4.4181-.2744-4.5323-.2883-9.3186-.4437-15.81-.5131-31.64-.2458-47.4312.6446q-6.3827.36-12.7568.852-2.7326.21-5.4625.4435c-.0524.0045-.644.058-1.1391.1024-.5047.0484-1.1337.1083-1.1874.1135q-12.2733,1.212-24.5056,2.7727c-3.6908.4772-7.3812.9662-11.0621,1.5148-1.8422.2744-3.6817.565-5.5171.8838-.29.05-1.1741.2134-1.9988.365-.5334.1222-1.7344.38-2.0224.4507-.771.1905-1.54.3855-2.3065.5939-.37.1009-.8369.2042-1.3116.32-.0837.0364-.1715.0744-.2835.1222-.3654.1552-1.7963.735-2.6732,1.0738-.76.42-2.4243,1.2731-2.8248,1.4672-.05.0239-.0769.0351-.12.0551-.111.0883-.2157.172-.3563.2806-.55.4262-1.11.8358-1.6538,1.2708q-.6874.55-1.3535,1.1287l-.1238.1292a47.02,47.02,0,0,0-4.0249,4.6634A3.4853,3.4853,0,0,1,2208.43-7.46ZM2368.23,5.6171c7.8382,0,13.6416,6.406,13.9806,13.9806.3382,7.55-6.6676,13.9806-13.9806,13.9806-7.8377,0-13.6411-6.4059-13.9806-13.9806C2353.9116,12.0477,2360.9174,5.6171,2368.23,5.6171ZM2250.8289,77.3687a47.0011,47.0011,0,0,1,21.79-28.5731c12.2753-7.3059,26.372-12.3745,40.6961-10.2422,22.232-1.3072,45.442,15.0342,55.1961,34.46,12.7136,25.32-3.8051,50.5934-24.2167,65.7013-20.9709,15.5215-49.8518,17.1872-71.2286,1.5366C2253.66,126.0436,2244.3119,100.8076,2250.8289,77.3687Z" transform="translate(-2043.7828 185.5588)"/><path class="cls-2" d="M2583.5655,42.76a236.8581,236.8581,0,0,0-19.6178-73.48c-11.2828-24.7937-27.4943-47.1885-46.2152-66.8952-20.1926-21.2562-43.8877-39.5354-70.2725-52.4436-13.9846-6.8414-28.7539-11.754-43.6443-16.21a370.2657,370.2657,0,0,0-46.7544-10.9868,298.9742,298.9742,0,0,0-96.6731.4538c-6.2858,1.034-12.4669,2.2573-18.553,3.7871l2.0525-1.4752c3.0879-.9525,6.2148-1.8284,9.4387-2.6282,2.0994-.5211,12.1539-3.2556,11.22-6.7414-.9275-3.4612-11.4725-.6289-13.0877-.2282-58.525,14.5226-108.1994,51.4021-144.3223,99.0164-36.1137,47.6032-61.241,105.401-63.213,165.6919-1.86,56.8921,14.7561,116.5968,48.6595,162.5921,18.0387,24.4727,40.9829,44.2462,66.76,60.2169,27.1366,16.8131,56.7056,31.1237,87.4743,39.8547,66.0824,18.7523,136.1346.1911,195.0156-31.8973,49.5956-27.0282,90.4255-67.3578,115.0709-118.3959C2579.2239,146.77,2588.8975,93.86,2583.5655,42.76ZM2464.7524,83.0758c-.6153,31.06-2.9482,65.4963-20.1422,92.3563-18.5211,28.9322-55.1236,40.2425-86.9245,46.7711-34.14,7.0089-69.6308,9.5686-104.4576,8.9863-16.1081-.2694-32.7278-1.4861-47.9108-7.3229a66.4163,66.4163,0,0,1-33.2307-27.7045c-7.9592-12.7835-11.6118-27.5384-13.1956-42.3851-1.7835-16.7225-1.8-33.851-1.4435-50.65a294.8881,294.8881,0,0,1,6.1556-51.8042c1.9692-9.869,3.9625-19.7594,4.9064-29.7383-2.0862-.3691-6.7077-1.5412-6.8569-4.1369A36.3308,36.3308,0,0,1,2165.5364-1.87c17.3865-33.0121,60.6449-38.2662,93.8324-42.1686,36.6872-4.3139,73.5328-6.124,110.4312-3.9073,28.9573,1.74,66.3682,5.6692,83.5458,32.5779,8.4125,13.1776,8.0935,30.7517,9.3846,45.8579A501.1123,501.1123,0,0,1,2464.7524,83.0758Z" transform="translate(-2043.7828 185.5588)"/><path class="cls-2" d="M2391.5891,193.4283c-.284.1916-.568.3841-.8556.5682C2390.9579,193.8529,2392.7542,192.8526,2391.5891,193.4283Z" transform="translate(-2043.7828 185.5588)"/><path class="cls-2" d="M2385.1376,196.9321c1.7158-.7942.6936-.3411-.2348.0687C2384.354,197.2775,2384.1888,197.3713,2385.1376,196.9321Z" transform="translate(-2043.7828 185.5588)"/><path class="cls-2" d="M2376.65,200.2113c-.1293.035-.2576.0721-.3869.1076a7.4974,7.4974,0,0,0-1.2547.46C2375.08,200.7422,2378.9187,199.5962,2376.65,200.2113Z" transform="translate(-2043.7828 185.5588)"/><path class="cls-2" d="M2269.66-27.242c-1.1077.1028-.6234.06.0251.0016C2270.3075-27.3,2270.74-27.3421,2269.66-27.242Z" transform="translate(-2043.7828 185.5588)"/><path class="cls-2" d="M2216.6506-19.0412c-.8938.4028-.5457.2865.1666.0114C2217.2918-19.2919,2217.4156-19.3861,2216.6506-19.0412Z" transform="translate(-2043.7828 185.5588)"/><path class="cls-2" d="M2224.6012-21.4591c-1.6812.3263-.51.1119.8132-.1315C2225.84-21.688,2225.8408-21.6994,2224.6012-21.4591Z" transform="translate(-2043.7828 185.5588)"/><path class="cls-2" d="M2218.8879-19.9835c.2885-.0892.5857-.169.886-.2423C2220.8138-20.6791,2219.75-20.302,2218.8879-19.9835Z" transform="translate(-2043.7828 185.5588)"/><path class="cls-2" d="M2361.2491,204.2073c-2.4853.5688,2.03-.3709,0,0Z" transform="translate(-2043.7828 185.5588)"/><path class="cls-2" d="M2213.8722-17.5075c2.4812-1.9692-1.9519.9143,0,0Z" transform="translate(-2043.7828 185.5588)"/><path class="cls-2" d="M2210.2569-14.6174c.082-.0726.1693-.1386.2517-.21C2211.3851-15.74,2210.4763-14.812,2210.2569-14.6174Z" transform="translate(-2043.7828 185.5588)"/><path class="cls-2" d="M2218.1588-19.7095c-.0614.0237-.1074.0419-.1156.0458C2218.0773-19.6806,2218.1233-19.6931,2218.1588-19.7095Z" transform="translate(-2043.7828 185.5588)"/><path class="cls-2" d="M2266.17,211.6836c-.2353-.0114-.47-.0314-.7049-.0444C2263.8547,211.63,2265.8849,211.67,2266.17,211.6836Z" transform="translate(-2043.7828 185.5588)"/><path class="cls-2" d="M2245.7,209.14c-1.7039-.3768.7363.2264,0,0Z" transform="translate(-2043.7828 185.5588)"/><path class="cls-2" d="M2309.0649,53.13l.0351-.0059C2309.526,52.8788,2309.9269,52.562,2309.0649,53.13Z" transform="translate(-2043.7828 185.5588)"/><path class="cls-2" d="M2319.9791,135.7989c-.2644.1984,1.9851-.4936,0,0Z" transform="translate(-2043.7828 185.5588)"/><path class="cls-2" d="M2317.0018,136.5186c-.1447.02-.2926.0294-.4382.046A2.7636,2.7636,0,0,0,2317.0018,136.5186Z" transform="translate(-2043.7828 185.5588)"/><path class="cls-2" d="M2301.9368,52.9932c-3.24-.7065-7.3835.2481-11.2965,2.0919a6.9449,6.9449,0,0,0,.7755.5192c4.8286,2.7752,12.5716.9676,16.8987-1.971.1361-.0924.2576-.1745.3686-.2489-.0937,0-.1807.0007-.2576.002-.6157.13-1.038.0182,0,0a2.7666,2.7666,0,0,0,.3186-.0871,1.6512,1.6512,0,0,0,.2025-.0908c.0423-.0285.0806-.0535.1183-.0783A19.39,19.39,0,0,1,2301.9368,52.9932Z" transform="translate(-2043.7828 185.5588)"/><path class="cls-2" d="M2308.4255,53.3864c.0769-.0013.1639-.002.2576-.002.0983-.0662.1834-.1229.2635-.1759a1.6512,1.6512,0,0,1-.2025.0908A2.7666,2.7666,0,0,1,2308.4255,53.3864Z" transform="translate(-2043.7828 185.5588)"/></svg>