<svg id="Layer_1" data-name="Layer 1" xmlns="http://www.w3.org/2000/svg" width="1672.9639" height="795.3862" viewBox="0 0 1672.9639 795.3862"><defs><style>.cls-1{fill:#2e4ac0;}.cls-2{fill:#c6a893;}</style></defs><path class="cls-1" d="M2456.3593,611.112l-.0436.14a16.8766,16.8766,0,0,1-.4246,1.8263C2455.8311,613.8043,2456.0163,613.8061,2456.3593,611.112Z" transform="translate(-783.3954 181.896)"/><path id="YouTube" class="cls-2" d="M1454.8718-64.556c-3.5813-29.1566-13.8457-57.7542-38.8136-75.2039-26.0927-18.2357-59.7791-20.9206-90.4422-24.4664-38.2216-4.42-76.5163-8.2325-114.8809-11.174-76.866-5.8937-154.0729-8.2948-231.1224-5.0239-18.02.765-35.9981,2.0053-53.9916,3.2106-11.7174.7849-23.4568,1.4351-35.1115,2.9323-23.0626,2.9628-46.3019,9.4307-63.4536,26.0009a80.75,80.75,0,0,0-13.08,16.6973c-6.4,9.1137-9.6949,20.5381-12.1987,31.15-3.826,16.2155-5.7306,32.8324-7.6653,49.3563-4.2765,36.5244-8.0154,73.2231-9.8562,109.96-3.18,63.4638.8069,134.4244,40.6214,187.15,9.7781,12.9492,21.8367,24.064,36.8058,30.6752,15.5922,6.8863,32.4953,9.3447,49.23,11.7807,35.3921,5.1517,70.843,9.9528,106.41,13.74,71.3508,7.5981,143.5125,11.227,215.0912,4.5631a651.5629,651.5629,0,0,0,103.9776-17.847c16.9977-4.4311,33.833-9.6046,50.3089-15.7045,14.4025-5.3324,28.876-11.7811,40.1187-22.5239,11.54-11.0271,17.4606-25.976,20.2406-41.4354,3.1344-17.4284,3.6712-35.391,4.7792-53.0308q3.6563-58.2055,4.7244-116.5353.5306-28.9905.4211-57.9881C1456.9251-33.7194,1456.7581-49.2027,1454.8718-64.556ZM1086.6559,169.87q-1.0486.4617-2.1017.9134c-.18.0778-.3612.1543-.5418.2311l-.0258.0108q-.6267.2616-1.2556.52a77.8343,77.8343,0,0,1-7.33,2.6725,22.31,22.31,0,0,1-11.1667.6087c-5.3024-1.2139-8.282-4.9919-8.912-10.3421-.7317-6.2155.2706-12.7435.6386-18.9593q.6117-10.33,1.1116-20.6666,1.0245-21.162,1.5968-42.3427c.7682-28.3952.95-56.8114.3583-85.2118-.1111-5.3238-.2741-10.6462-.4436-15.9684a20.27,20.27,0,0,1,2.5234.7811c2.4869,1.1123,4.8423,2.5821,7.2361,3.8768l20.318,10.9892q19.9956,10.815,39.9915,21.63Q1148.81,29.5141,1168.967,40.416c11.7941,6.3791,24.1154,12.2678,35.2144,19.8326a60.595,60.595,0,0,1,12.896,11.4973,34.06,34.06,0,0,1,4.8377,7.7436,17.4438,17.4438,0,0,1,1.238,4.0379c.1233.729.0735,1.452.1516,2.18-.0559.1849-.1225.39-.16.5132-.0727.1442-.1433.2907-.22.43-.1889.3435-.3978.6759-.615,1.0017-.135.2023-.283.3957-.4185.5976-.0236.0348-.03.0462-.0473.073-.0133.0146-.0161.0167-.0319.0348a62.4362,62.4362,0,0,1-5.1834,5.3346c-1.1166,1.01-2.26,1.99-3.4208,2.95-1.1259.9315-2.8341,2.29-3.6314,2.9049.1788-.1377-.6615.5054-.8278.6318q-.4763.3614-.9535.72-1.116.8373-2.2415,1.6607-2.3338,1.7082-4.7032,3.3667c-6.3983,4.4872-12.9455,8.76-19.5563,12.9267q-14.4677,9.1181-29.3321,17.5959c-5.6855,3.2442-11.4817,6.3017-17.2564,9.3828-14.1478,7.5488-28.3815,14.9964-42.94,21.7276Q1089.2209,168.7365,1086.6559,169.87Z" transform="translate(-783.3954 181.896)"/></svg>