<svg id="Layer_1" data-name="Layer 1" xmlns="http://www.w3.org/2000/svg" width="493.2511" height="626.1481" viewBox="0 0 493.2511 626.1481"><defs><style>.cls-1{fill:#2e4ac0;}</style></defs><path class="cls-1" d="M196.71,886.6464l-.396,1.2738a153.502,153.502,0,0,1-3.8634,16.6141C191.9052,911.139,193.59,911.1555,196.71,886.6464Z" transform="translate(292.0248 -282.1334)"/><path id="Spotify" class="cls-1" d="M200.5018,497.1279a347.3516,347.3516,0,0,0-8.3881-47.7893,234.2376,234.2376,0,0,0-12.9989-39.9614c-11.3484-25.8128-30.091-46.9652-51.1136-65.4283A247.6424,247.6424,0,0,0-10.4937,283.7278a305.2146,305.2146,0,0,0-149.0731,22.1766,239.153,239.153,0,0,0-61.8262,37.4762,164.6938,164.6938,0,0,0-43.3257,56.2385c-21.8145,46.4332-27.3416,98.8133-27.3059,149.5628.0161,23.1431,3.6367,45.52,12.9037,66.8335,1.6528,3.8011,3.3886,7.62,5.2658,11.3751-4.09,1.6014-7.3492,3.6818-6.7145,4.7131,28.1131,45.7052,75.5172,74.4591,125.43,91.0544,52.9946,17.62,111.5643,25.8327,166.9556,16.1693a216.4205,216.4205,0,0,0,76.9336-29.0708c21.2921-13.2507,39.7881-30.3309,55.5227-49.8049,16.9929-21.0313,31.6207-44.8475,41.25-70.1519C196.8463,560.5427,203.5181,529.0106,200.5018,497.1279ZM-13.0743,627.9437c-3.094.2751-11.849,1.1589-14.8255-1.4219a170.9192,170.9192,0,0,0-53.4424-31.3036,174.3432,174.3432,0,0,0-31.6342-7.46c-1.4513-.1987-2.9064-.3572-4.3595-.54l-.068-.0087c-2.8853-.1943-5.7657-.387-8.6574-.4667-2.81-.0775-5.6112-.0381-8.42-.0115-1.3684.0937-2.736.1854-4.1029.3007-4.3336.3653-10.7846,1.1087-14.8255-1.4219-3.5181-2.2032-.6951-5.3327,1.2175-7.2815,3.9084-3.9831,11.4985-6.7817,16.4889-8.5664a92.8958,92.8958,0,0,1,22.8251-5.206c50.2729-4.2383,101.7588,8.8855,140.3354,42.3335,7.4662,6.4737-13.8014,14.3919-17.7068,15.8479A90.4712,90.4712,0,0,1-13.0743,627.9437Zm37.1764-73.69c-5.392.7121-14.0634,1.2032-19.1979-1.5435a298.6825,298.6825,0,0,0-38.0324-17.0816q-8.53-3.1284-17.24-5.7345c-.0529-.0159-.1111-.0329-.1715-.05.2879.0752.6091.159.97.2528-.6512-.1693-1.2967-.3631-1.9452-.5416q-1.9473-.5358-3.9009-1.0456-4.2334-1.1046-8.4976-2.0872a303.4032,303.4032,0,0,0-36.4959-6.0869c-.8174-.0855-1.6352-.1639-2.4534-.241.19.01.29.0077.2429-.0116a6.592,6.592,0,0,0-1.8792-.1419q-.6355-.0588-1.2708-.1182c-1.3811-.13-.4083-.0217.81.0956q-4.2019-.2844-8.411-.4539-9.0781-.361-18.1672-.1677-4.529.0959-9.0534.3359c-1.2378.1235-2.5022.1594-3.729.2694-6.0349.5412-12.0473,1.2821-18.0382,2.1848-7.5841,1.1426-26.9265,1.2836-24.9576-11.2133.7611-4.8332,7.7263-9.6072,11.3026-11.7253,6.647-3.9368,14.645-6.2807,22.2306-7.4237a351.5635,351.5635,0,0,1,49.6023-3.8648c53.896-.4093,108.4564,12.112,156.0568,37.5753,4.1827,2.2374,6.5145,4.8772,5.76,9.67-.829,5.2617-7.1788,9.144-11.303,11.7253C40.0247,550.7783,31.4062,553.2891,24.1021,554.2538ZM97.75,482.0875a69.8165,69.8165,0,0,1-10.6954,2.7152,47.67,47.67,0,0,1-9.467,1.0262,26.7314,26.7314,0,0,1-7.4756-.3644,259.12,259.12,0,0,1-24.7054-8.2775c-25.5011-9.7915-49.5189-23.0621-75.1551-32.52a195.2048,195.2048,0,0,0-21.2433-6.2476A213.5215,213.5215,0,0,0-75,434.4931c-5.1138-.49-10.2363-.88-15.363-1.2131-11.1089-.7211-22.1064-1.2859-33.2191-.9827-6.6.3293-13.1915.8693-19.75,1.6778-2.6174.405-5.2268.857-7.8239,1.3746q-1.02.2589-2.0342.5349c-.1475.0905-.2923.1853-.4387.2776-.0128.0106-.0266.02-.0394.03-4.3828,3.6759-9.7035,5.9075-15.0035,7.8982a83.56,83.56,0,0,1-20.8079,4.7248,28.7443,28.7443,0,0,1-8.0423-.0185,11.6971,11.6971,0,0,1-5.5012-1.3956q-2.0914-1.122-1.3188-3.0115a4.4546,4.4546,0,0,1,2.3876-3.7771,75.0755,75.0755,0,0,1,6.8418-5.0158,82.0947,82.0947,0,0,1,12.9371-6.8345,201.81,201.81,0,0,1,22.0824-7.867c5.6869-1.7032,11.5282-2.9547,17.3273-4.1806,3.7118-.7846,7.452-1.4332,11.2054-1.9821a352.3051,352.3051,0,0,1,52.2084-3.8494c6.3812.0209,12.7377.4554,19.1055.8406,13.0031.7865,26.0332,1.7693,38.9234,3.6962,22.2974,3.3333,43.415,11.14,63.9489,20.2382,18.7452,8.3057,37.0956,17.5635,56.3363,24.7028,5.0024,1.7722,10.0558,3.3928,15.1772,4.788a5.5022,5.5022,0,0,1,4.7138,2.996q-.1971,1.1745-.3937,2.3488a16.4323,16.4323,0,0,1-5.9429,5.3159q-2.5395,1.34-5.0794,2.68A61.4944,61.4944,0,0,1,97.75,482.0875Z" transform="translate(292.0248 -282.1334)"/></svg>