<svg id="Layer_1" data-name="Layer 1" xmlns="http://www.w3.org/2000/svg" width="1810.7657" height="548.33" viewBox="0 0 1810.7657 548.33"><defs><style>.cls-1{fill:#2e4ac0;}</style></defs><path class="cls-1" d="M1978.04,466.42l-.0277.089a10.7092,10.7092,0,0,1-.27,1.1609C1977.7044,468.131,1977.8222,468.1322,1978.04,466.42Z" transform="translate(-167.2744 -266.3065)"/><path class="cls-1" d="M1711.565,359.409c-36.1972-45.7576-93.1924-55.2993-147.443-60.91-86.135-8.9078-173.1807-13.1106-259.5976-18.5525-329.8207-20.7588-660.406-18.6142-989.5671,11.8963-29.4434,2.7333-57.5458,27.3409-78.2058,59.4445-22.888,27.95-38.6846,63.9971-44.3652,92.7911-26.3385,133.5226-70.7171,306.69,104.7368,345.3548,156.566,34.4993,324.7463,23.805,483.7749,23.0682,161.3142-.7533,322.6181-2.7951,483.9323-3.5442,137.2921-.6422,283.0053,14.7283,387.0495-92.6594C1735.3741,630.1218,1795.5852,465.6277,1711.565,359.409Z" transform="translate(-167.2744 -266.3065)"/></svg>