<svg id="Layer_1" data-name="Layer 1" xmlns="http://www.w3.org/2000/svg" width="2693.9438" height="1606.3681" viewBox="0 0 2693.9438 1606.3681"><defs><style>.cls-1{fill:#2e4ac0;}</style></defs><path class="cls-1" d="M1978.04,466.42l-.0277.089a10.7092,10.7092,0,0,1-.27,1.1609C1977.7044,468.131,1977.8222,468.1322,1978.04,466.42Z" transform="translate(547.7169 466.447)"/><path class="cls-1" d="M1129.4313-439.9746c-49.0735-22.7709-104.5163-27.876-158.0065-26.1707-62.2044,1.983-124.016,13.2761-184.1427,28.9108C667.3866-406.0581,554.4139-355.91,448.7176-291.5664,214.0745-148.7241,16.9067,59.52-108.607,304.2691c-35.1144,68.4724-64.1666,141.7824-72.007,218.8953-7.13,70.1223,5.7963,140.1722,34.1726,204.49,55.6822,126.209,162.7,224.0743,282.6508,288.69,119.5,64.3728,253.6606,98.323,387.9194,113.482,143.51,16.2034,289.7163,12.2384,432.705-7.1527,293.58-39.8132,580.2912-148.8364,822.59-320.0273,114.9177-81.1925,220.9959-180.2447,290.3326-304.0483,66.3594-118.4876,95.355-261.9729,63.5169-395.4836a420.6071,420.6071,0,0,0-93.3475-180.12c-44.7015-50.954-99.9692-91.7335-158.6063-125.2611-111.637-63.832-235.9515-103.574-362.3342-125.3545-260.3079-44.8607-532.8292-18.4238-785.5686,54.5778C609.6522-237.2954,488.9609-189.457,375.9088-127.516,257.9738-62.9,148.9753,17.5157,51.0341,109.5754c-196.736,184.9218-345.0334,412.6507-488.4914,639.4337-36.7162,58.0421-73.23,116.212-110.2009,174.093-.3809.5962,1.2077.4343,1.478.0112C-402.9273,698.8372-267.2826,467.3181-94.1,264.177-9.0941,164.4664,85.1626,72.5663,189.9681-6.2582,294.671-85.0056,408.935-149.808,529.6829-200.52c244.1856-102.5531,513.4665-154.866,778.3845-146.93,128.08,3.8368,256.4431,22.4387,378.6455,61.6648,122.8933,39.4479,247.2938,99.6947,337.56,193.9413C2122.7453,10.9709,2158.7571,151.65,2139.1,291.01c-19.4483,137.88-90.4194,260.7283-184.9405,361.0427-98.0054,104.0123-218.6461,186.0333-343.385,254.5752a1880.71,1880.71,0,0,1-415.7414,167.1735,1878.1584,1878.1584,0,0,1-448.0188,64.5205c-137.87,2.9584-277.154-8.4937-410.5644-44.7183C207.36,1058.5522,83.2234,999.0111-14.9018,906.7854c-102.2253-96.0793-176.2548-230.8389-164.9649-374.4906,5.943-75.6192,32.89-147.95,66.3707-215.4011C-81.856,253.1516-44.65,191.9727-3.7587,133.76A1526.6479,1526.6479,0,0,1,269.9754-162.7848c101.31-84.1158,214.3046-157.2471,334.996-210.3666C718.1-422.9423,842.9681-460.4087,967.0958-465.15c54.4607-2.08,111.0544,2.72,161.0611,25.9239.4479.2078,1.91-.454,1.2744-.7487Z" transform="translate(547.7169 466.447)"/><path class="cls-1" d="M581.7456,380.2874a94.1881,94.1881,0,0,0,.3568,19.3921c.9282,8.3373,2.3089,16.6306,3.543,24.9268q1.0008,6.7285,2.0017,13.4571a3.4686,3.4686,0,0,0,2.9223,2.6591,6.5357,6.5357,0,0,0,4.5115-1.8261,13.0242,13.0242,0,0,0,3.6543-5.3194l.56-1.98a7.7866,7.7866,0,0,0-.0588-3.4928c-1.4308-9.6189-2.9344-19.2308-4.2909-28.8609a95.3862,95.3862,0,0,0,14.67-3.7069,4.6705,4.6705,0,0,0,2.9074-3.5979c.16-1.0773-.2236-2.9367-1.7754-2.4086a95.2034,95.2034,0,0,1-16.536,4.046,94.16,94.16,0,0,1-.601-17.59q.1413-1.3135.3389-2.6192c.0569-.0438.1148-.0865.1721-.13a33.5471,33.5471,0,0,1,4.8992-2.6246,46.2051,46.2051,0,0,1,11.5912-2.6777,13.0113,13.0113,0,0,1,3.3646.1049,4.937,4.937,0,0,1,1.1375.7232c1.0882.9239,3.2847.1941,4.2907-.3467a11.48,11.48,0,0,0,4.2228-4.3794,11.2247,11.2247,0,0,0,1.6813-5.8468l-.2253-1.6376a3.624,3.624,0,0,0-1.62-2.2515,8.3876,8.3876,0,0,0-4.5-1.6553,26.199,26.199,0,0,0-5.0454.224,49.4521,49.4521,0,0,0-7.441,1.2682,42.9789,42.9789,0,0,0-16.1284,7.8491,38.1094,38.1094,0,0,0-8.0515,9.1105,11.2237,11.2237,0,0,0-1.6813,5.8468A5.5,5.5,0,0,0,581.7456,380.2874Z" transform="translate(547.7169 466.447)"/><path class="cls-1" d="M630.0905,375.7458c-.18,4.1629.0534,8.37.1877,12.4837q.1217,3.723.2432,7.4462c-.056.174-.1094.3475-.158.5191-.4867,1.7211-.896,4.2248.3634,5.7709q.1286,3.9364.257,7.8731.1984,6.0726.3966,12.1454c.0462,1.4159.5142,3.1207,1.8451,3.8891a4.5268,4.5268,0,0,0,4.2906-.3467,11.5409,11.5409,0,0,0,4.2228-4.3794A11.7239,11.7239,0,0,0,643.42,415.3q-.1032-3.1577-.2062-6.3154c3.7978.9906,7.7131,1.4366,11.4878,2.5189a19.405,19.405,0,0,1,6.16,3.2637,13.8142,13.8142,0,0,1,1.0992,1.2825c2.2957,3.04,6.5159.2559,8.2529-1.9691a12.9122,12.9122,0,0,0,2.78-5.8245c.2344-1.579.3493-3.4646-.6743-4.82-3.1187-4.13-7.6572-6.0711-12.5008-7.39-3.9079-1.0642-7.9536-1.5025-11.8488-2.6131q.8542-.733,1.6916-1.4862A67.8983,67.8983,0,0,0,661.9422,377.52a29.5141,29.5141,0,0,0,4.4949-11.0495c.5112-3.5968.2752-7.6248-2.029-10.6282a9.2535,9.2535,0,0,0-8.31-3.4654,41.0525,41.0525,0,0,0-9.383,1.8415,40.2626,40.2626,0,0,0-6.87,2.8207,3.6287,3.6287,0,0,0-1.0747.1384,9.081,9.081,0,0,0-4.4889,3.17l-1.2648,1.8328a12.823,12.823,0,0,0-1.13,2.5185,22.938,22.938,0,0,0-1.2518,2.4823c-1.064,2.4694-1.6152,5.8065-.612,8.3977C630.0448,375.6356,630.0678,375.6905,630.0905,375.7458Zm20.8584-8.1257a9.3233,9.3233,0,0,1,2.07.1285,5.5579,5.5579,0,0,1,.8372.4805,6.704,6.704,0,0,1,.5994.8391c.0726.2127.1372.4275.1923.6453.0016.0521.0052.1044.0059.1566-.0049.0262-.0088.0526-.0139.0788q-.1057.2882-.2214.5726c-.49.9167-1.0279,1.8077-1.5951,2.6793A51.5089,51.5089,0,0,1,648.82,378.01a85.5088,85.5088,0,0,1-6.4308,5.7137q-.0972-2.9816-.1947-5.9633c-.0859-2.6368-.1607-5.2764-.0594-7.912A39.3814,39.3814,0,0,1,650.9489,367.62Z" transform="translate(547.7169 466.447)"/><path class="cls-1" d="M679.982,370.4985c1.173,9.636.1833,19.3553.5394,29.0277.2022,5.4892.5605,11.21,3.0374,16.1985a12.5118,12.5118,0,0,0,4.8714,5.2161,10.6707,10.6707,0,0,0,8.0476.94,40.5257,40.5257,0,0,0,8.641-3.9381q3.6454-1.9848,7.1191-4.2623a12.7308,12.7308,0,0,0,4.2229-4.3794,11.4279,11.4279,0,0,0,1.6812-5.8468c-.0943-1.3989-.42-3.2023-1.8451-3.8892a4.4393,4.4393,0,0,0-4.2906.3467,82.511,82.511,0,0,1-11.8153,6.67,10.83,10.83,0,0,1-1.48.41,6.9035,6.9035,0,0,1-1.1176-.1225,8.473,8.473,0,0,1-1.8668-1.1116,10.859,10.859,0,0,1-1.5822-2.22,20.9677,20.9677,0,0,1-1.1083-4.2851c-.2389-1.9923-.3835-3.9885-.4671-5.9874a29.7876,29.7876,0,0,0,5.6142-.9674,34.8513,34.8513,0,0,0,11.3376-5.6914,12.5875,12.5875,0,0,0,3.6544-5.3194c.5629-1.5136,1.0784-3.8578.5011-5.4727-.4706-1.3164-1.3605-2.5857-2.9223-2.6591a5.892,5.892,0,0,0-3.5545,1.16l.1374-.0966a26.1355,26.1355,0,0,1-4.19,2.3711,26.543,26.543,0,0,1-5.9446,1.4292,26.0509,26.0509,0,0,1-4.157-.0946,3.5174,3.5174,0,0,0-.443-.0142c.0454-3.9049.0155-7.8073-.3257-11.6979q-.0552-.63-.12-1.2609,10.5571-2.34,21.2642-3.91c1.6519-.2415,3.5043-1.98,4.4889-3.17a12.9736,12.9736,0,0,0,2.78-5.8244c.2258-1.5206.3991-3.5529-.6743-4.82l-1.0043-.9242a3.6245,3.6245,0,0,0-2.76-.2771q-12.9042,1.8871-25.6056,4.9027a7.5686,7.5686,0,0,0-3.0731,1.7183,6.5479,6.5479,0,0,0-4.4989,1.8269,13.0222,13.0222,0,0,0-3.6543,5.3194,9.5252,9.5252,0,0,0-.5012,5.4726C679.363,366.991,679.7113,368.7373,679.982,370.4985Z" transform="translate(547.7169 466.447)"/><path class="cls-1" d="M733.9454,417.4988a6.8728,6.8728,0,0,0,1.8463.7733,5.6031,5.6031,0,0,0,2.1035.3523,9.6648,9.6648,0,0,0,2.9025-.497,21.8255,21.8255,0,0,0,3.011-1.3639c1.2288-.6887,2.449-1.3931,3.6733-2.09l8.3792-4.7678a11.9571,11.9571,0,0,0,4.2228-4.3794,11.4261,11.4261,0,0,0,1.6813-5.8468c-.0943-1.3989-.42-3.2023-1.8451-3.8892a4.557,4.557,0,0,0-4.2906.3467l-6.8682,3.9081c-1.8834,1.0716-3.756,2.3108-5.7212,3.26-.0355.01-.0712.02-.1067.0294-.0417-.0039-.0833-.0083-.1249-.0135a5.1515,5.1515,0,0,1-.6516-.3931,6.8153,6.8153,0,0,1-.5955-.8193q-.1167-.3546-.2007-.7184a17.1324,17.1324,0,0,1,.0195-2.0114c.4888-4.931,1.0035-9.85,1.3656-14.7868a30.9853,30.9853,0,0,0,9.0168-5.1665,13.0756,13.0756,0,0,0,3.6543-5.3194c.5631-1.5137,1.0785-3.8579.5012-5.4727-.4706-1.3164-1.3605-2.5857-2.9223-2.6591a6.7822,6.7822,0,0,0-4.5114,1.8261c-.1562.1265-.3152.2489-.4741.3714a22.5978,22.5978,0,0,1-2.746,1.4886c-.6467.2312-1.3023.43-1.9648.6q.043-6.2471-.2372-12.4907-.1428-3.1538-.372-6.3024l16.5186-2.2254c1.64-.221,3.5184-1.9972,4.4888-3.17a12.9727,12.9727,0,0,0,2.78-5.8244c.2257-1.5206.3991-3.5529-.6743-4.82l-1.0043-.9242a3.6244,3.6244,0,0,0-2.76-.277l-23.3508,3.1458c-1.64.221-3.5184,1.9972-4.4888,3.17a12.9715,12.9715,0,0,0-2.78,5.8244,13.4682,13.4682,0,0,0-.1682,1.95,9.1851,9.1851,0,0,0-1.0343,4.5645,240.688,240.688,0,0,1,.7625,34.14q-.2106,4.2982-.579,8.5865c-.2439,2.5352-.5514,5.0622-.8116,7.5956-.4032,3.9256-.5177,7.8229,1.5112,11.3624A9.1943,9.1943,0,0,0,733.9454,417.4988Z" transform="translate(547.7169 466.447)"/><path class="cls-1" d="M851.9313,372.7319a42.2086,42.2086,0,0,0,7.2692,2.9737c5.23,1.7559,10.6659,3.3459,14.9448,6.9665a15.6223,15.6223,0,0,1,2.7222,3.6212,14.7724,14.7724,0,0,1,.7285,2.5,17.6446,17.6446,0,0,1,.0415,1.9955q-.13.911-.3385,1.807-.3065.9141-.6818,1.8019-.4557.8571-.971,1.68-.4515.5926-.9393,1.1555-.36.3279-.7368.6352c-.2578.1543-.52.3-.7882.4362a10.1285,10.1285,0,0,1-1.2029.2956,10.379,10.379,0,0,1-2.503-.3015,18.4649,18.4649,0,0,1-5.4229-3.43,45.5517,45.5517,0,0,1-8.6437-11.6011c-.6711-1.2735-2.5641-1.4809-3.764-1.2012a9.0646,9.0646,0,0,0-4.4889,3.17,12.911,12.911,0,0,0-2.78,5.8245q-.0834.9276-.1665,1.8551a5.2559,5.2559,0,0,0,.8408,2.965,46.6909,46.6909,0,0,0,5.7348,8.4962,33.801,33.801,0,0,0,8.018,7.25,14.5679,14.5679,0,0,0,11.0307,1.8484c4.4631-1.1323,8.1862-4.26,11.1245-7.6785a38.2758,38.2758,0,0,0,6.6265-11.3565,28.9556,28.9556,0,0,0,2.0439-12.47,19.2214,19.2214,0,0,0-4.1464-10.8616,25.1919,25.1919,0,0,0-8.0057-6.1511,89.6277,89.6277,0,0,0-10.898-4.0444,28.2745,28.2745,0,0,1-8.974-4.4673,11.01,11.01,0,0,1-1.3033-1.609q.1621-.1273.3267-.2523a37.1011,37.1011,0,0,1,5.25-2.9073,16.7381,16.7381,0,0,1,3.047-.7989,11.0447,11.0447,0,0,1,2.7555.2873,8.7432,8.7432,0,0,1,1.9968,1.1147,7.6121,7.6121,0,0,1,.6664.8645,3.5053,3.5053,0,0,0,3.764,1.2012,9.0639,9.0639,0,0,0,4.4889-3.17,12.91,12.91,0,0,0,2.78-5.8244,6.7206,6.7206,0,0,0-.6743-4.82c-3.2668-4.9563-9.983-5.8037-15.2589-4.1286a37.8927,37.8927,0,0,0-16.0533,10.28c-4.97,5.3981-7.8316,14.4245-3.3417,20.9466A17.6489,17.6489,0,0,0,851.9313,372.7319Z" transform="translate(547.7169 466.447)"/><path class="cls-1" d="M901.0275,413.5488a9.081,9.081,0,0,0,4.4889-3.17,12.0585,12.0585,0,0,0,2.78-5.8244q.999-10.7209,2.72-21.356a63.94,63.94,0,0,1,19.6519-2.109,4.8647,4.8647,0,0,0,.5087-.01c1.3567,4.5909,2.5867,9.219,3.76,13.86.8591,3.3979,1.6888,6.8032,2.5182,10.2085a3.5006,3.5006,0,0,0,2.9223,2.6591,6.5362,6.5362,0,0,0,4.5114-1.8261c2.8513-2.5674,5.1124-6.8634,4.1555-10.7921-2.1869-8.9786-4.3764-17.9646-7.1-26.7989-1.3449-4.3619-2.82-8.6851-4.4846-12.9358a60.4259,60.4259,0,0,0-5.4423-11.2364,24.3855,24.3855,0,0,0-3.5057-4.2588,20.1472,20.1472,0,0,0-5.2254-3.8851,8.2563,8.2563,0,0,0-3.71-.9381,10.4073,10.4073,0,0,0-7.5495,4.1371,19.1792,19.1792,0,0,0-3.1829,5.5989c-.3786,1.0509-.651,2.1472-.9563,3.2208-2.6763,9.41-5.0254,18.8959-6.8835,28.5026q-2.9682,15.3462-4.4153,30.9325c-.1474,1.5815-.3545,3.4309.6743,4.82A3.5026,3.5026,0,0,0,901.0275,413.5488Zm23.1693-52.163q1.0437,2.3156,1.9636,4.6908a78.0523,78.0523,0,0,0-12.3478,2.1131q.8532-4.0347,1.8108-8.0466.9525-3.9869,2.0126-7.9466.3983.3081.7778.6338A30.429,30.429,0,0,1,924.1968,361.3858Z" transform="translate(547.7169 466.447)"/><path class="cls-1" d="M959.9038,407.1912a4.527,4.527,0,0,0,4.2907-.3467,12.6117,12.6117,0,0,0,5.9041-10.2262,385.046,385.046,0,0,1,.2555-40.5175q.0714-1.2054.1519-2.41c1.2439,8.7427,2.77,17.5,6.1776,25.6836a27.1346,27.1346,0,0,0,1.9728,4.185,11.1212,11.1212,0,0,0,2.7754,2.8858,6.1559,6.1559,0,0,0,4.7764.9438c3.2152-.58,5.6754-3.4446,7.33-6.0266a31.2,31.2,0,0,0,2.3338-5.0551q.7212-1.761,1.4071-3.536,1.4268-3.6918,2.7-7.4407c.8966-2.64,1.718-5.3019,2.5191-7.9719.35-1.1681.71-2.3345,1.11-3.4861a17.7689,17.7689,0,0,1,2.1471,3.3073,38.48,38.48,0,0,1,2.425,9.3125c.6642,5.109,1.085,10.2583,1.6129,15.3821l1.818,17.644q.5112,4.9625,1.0225,9.9248c.15,1.4547.438,3.0767,1.8452,3.8891a4.5268,4.5268,0,0,0,4.2906-.3467,11.5424,11.5424,0,0,0,4.2228-4.3794c.9281-1.7122,1.8865-3.8557,1.6813-5.8468q-1.5908-15.4385-3.1814-30.877c-.51-4.9521-.9458-9.9162-1.6476-14.8458a38.3912,38.3912,0,0,0-2.7158-10.315,22.0481,22.0481,0,0,0-3.4519-5.8141,16.4981,16.4981,0,0,0-5.3954-4.1608c-2.1111-.9587-4.1563.041-5.814,1.4184-4.9018,4.0732-7.9305,9.9719-9.8573,15.9443-1.5531,4.8136-2.9634,9.6553-4.6937,14.411-3.2519-8.2087-4.731-16.9886-5.9515-25.7126-.42-3.1525-.7634-6.2817-2.5228-9.0429a8.2294,8.2294,0,0,0-8.526-3.6506,10.718,10.718,0,0,0-5.0327,2.7794,20.2636,20.2636,0,0,0-4.764,7.0785,28.038,28.038,0,0,0-1.6707,8.2184c-1.1012,11.879-1.7531,23.7855-1.8015,35.717q-.0393,9.7008.4121,19.3947C958.1246,404.7257,958.5584,406.4144,959.9038,407.1912Z" transform="translate(547.7169 466.447)"/><path class="cls-1" d="M1038.7573,352.5691q1.4925,11.1725,1.994,22.4447a11.5748,11.5748,0,0,0-1.5062,2.9085c-.56,1.6439-1.155,3.7771-.5011,5.4726a7.2761,7.2761,0,0,0,2.2514,3.3238q-.0036,1.5159-.0234,3.0317-.0789,5.4288-.3923,10.85a3.7885,3.7885,0,0,0,6.1358,3.5425,12.6606,12.6606,0,0,0,5.9041-10.2262q.1636-2.862.2623-5.7269c.7888-.125,1.5728-.2809,2.3495-.4779a38.5834,38.5834,0,0,0,6.0085-2.17c7.9663-3.5036,14.4949-10.0753,19.0181-17.4,4.8056-7.7821,7.5652-18.0058,4.2216-26.8785a23.7254,23.7254,0,0,0-5.864-9.1186,23.98,23.98,0,0,0-4.6334-3.5641,23.4133,23.4133,0,0,0-5.4909-2.0981,23.1056,23.1056,0,0,0-12.0586.32,25.7487,25.7487,0,0,0-8.717,4.3428,3.4625,3.4625,0,0,0-1.8391-.844,6.5366,6.5366,0,0,0-4.5115,1.8261c-3.0045,2.7055-4.885,6.7421-4.1554,10.7921Q1038.076,347.73,1038.7573,352.5691Zm24.1443-10.7617a18.9663,18.9663,0,0,1,5.8358,3.4154,20.9387,20.9387,0,0,1,3.8735,5.31,20.2432,20.2432,0,0,1,1.2083,4.0525,19.5353,19.5353,0,0,1,.0577,2.4445q-.1436,1.0248-.3787,2.0315-.351,1.0543-.7862,2.0762-.67,1.2765-1.4488,2.49a35.6493,35.6493,0,0,1-2.2721,2.7606,35.1678,35.1678,0,0,1-3.3216,2.8312,32.3278,32.3278,0,0,1-4.6364,2.54,27.8972,27.8972,0,0,1-6.4167,1.5678c-.55.0353-1.1028.0555-1.6548.0475a251.9491,251.9491,0,0,0-1.9729-26.0535q-.2621-2.0424-.55-4.0812a20.6779,20.6779,0,0,1,1.9406-1.0188,21.2446,21.2446,0,0,1,4.3773-1.0519A19.8535,19.8535,0,0,1,1062.9016,341.8074Z" transform="translate(547.7169 466.447)"/><path class="cls-1" d="M1100.764,405.5194a14.4559,14.4559,0,0,0,6.0914,1.3057,19.5766,19.5766,0,0,0,7.6682-1.7537c5.4552-2.3467,9.6473-6.9762,13.5469-11.288a12.82,12.82,0,0,0,2.78-5.8244c.2459-1.3673.3247-3.6408-.6743-4.82-2.5637-3.0265-6.2926-.1984-8.2529,1.9691-.6286.695-1.26,1.3875-1.9015,2.07a33.6,33.6,0,0,1-3.0758,2.7139,19.19,19.19,0,0,1-2.0173,1.12,13.3708,13.3708,0,0,1-2.2.5256,12.2938,12.2938,0,0,1-3.2114-.32,9.2029,9.2029,0,0,1-2.1858-1.2235,8.2346,8.2346,0,0,1-.9865-1.36,11.6717,11.6717,0,0,1-.463-1.6745,62.503,62.503,0,0,1,.4838-10.8693l-.1665,1.8551c1.1948-13.1947,3.5576-26.5019,2.3793-39.782a71.74,71.74,0,0,0-1.9974-11.9277,3.5084,3.5084,0,0,0-2.9223-2.6591,6.5358,6.5358,0,0,0-4.5115,1.8261,13.0234,13.0234,0,0,0-3.6544,5.3194,9.4634,9.4634,0,0,0-.5011,5.4726,60.1854,60.1854,0,0,1,1.27,6.125,101.7346,101.7346,0,0,1,.0314,21.1585c-.4325,4.6092-.98,9.2067-1.4506,13.8121-.3,2.9314-.5743,5.8668-.7894,8.8057a58.6668,58.6668,0,0,0-.2609,6.771C1094.0085,397.9113,1095.7937,403.3168,1100.764,405.5194Z" transform="translate(547.7169 466.447)"/><path class="cls-1" d="M1147.8338,397.9973a23.6619,23.6619,0,0,0,15.2972,1.4907c6.8448-1.5124,12.8364-5.4473,18.3883-9.55a12.646,12.646,0,0,0,3.6543-5.3194c.5629-1.5137,1.0784-3.8579.5011-5.4727-.4705-1.3164-1.3605-2.5857-2.9222-2.6591a7.0485,7.0485,0,0,0-4.5115,1.8261q-.4943.3652-.9929.7243a47.3457,47.3457,0,0,1-7.58,4.3194,26.09,26.09,0,0,1-5.7825,1.4757,19.9177,19.9177,0,0,1-6.1118-.6493,16.1428,16.1428,0,0,1-4.8441-2.713,13.221,13.221,0,0,1-2.1368-2.927,18.36,18.36,0,0,1-.9667-3.544,47.8473,47.8473,0,0,1-.2043-6.3461q7.6783-2.2366,15.1485-5.116a10.2054,10.2054,0,0,0,4.4889-3.17,12.9729,12.9729,0,0,0,2.78-5.8244c.2259-1.5206.3991-3.553-.6743-4.82a3.4127,3.4127,0,0,0-3.764-1.2013q-8.1819,3.1585-16.63,5.5421c.6374-5.2328,1.2722-10.473,1.46-15.7272a199.82,199.82,0,0,1,22.2186-4.1659c1.635-.2115,3.5249-2.0051,4.4889-3.17a12.9724,12.9724,0,0,0,2.7795-5.8244c.2259-1.5206.3992-3.553-.6743-4.82q-.5021-.4621-1.0042-.9242a3.6246,3.6246,0,0,0-2.76-.2771,199.8253,199.8253,0,0,0-24.9115,4.8489,6.1384,6.1384,0,0,0-.9806.3514q-.185-1.0918-.4054-2.1749a3.4867,3.4867,0,0,0-2.9223-2.6592,6.5362,6.5362,0,0,0-4.5115,1.8261c-2.943,2.65-4.9778,6.7893-4.1555,10.7921q.2423,1.18.4284,2.368a74.9114,74.9114,0,0,1,.0735,14.9419c-.5317,5.5568-1.33,11.0844-1.8488,16.6425-.607,6.4978-1.2259,13.2354.1411,19.683A17.3918,17.3918,0,0,0,1147.8338,397.9973Z" transform="translate(547.7169 466.447)"/><path class="cls-1" d="M1187.4739,357.9456a12.3587,12.3587,0,0,0,4.1438,1.5439,34.45,34.45,0,0,0,8.0393.6834c5.7214-.0408,11.3606-.3215,16.9116,1.24a22.8479,22.8479,0,0,1,7.36,4.1077,18.2608,18.2608,0,0,1,3.2932,4.4022,15.2361,15.2361,0,0,1,.8108,2.69c.034.477.0439.954.0329,1.4318q-.0717.4623-.1694.92-.12.3389-.2523.6727-.1623.2918-.3344.5777-.2967.378-.6105.7419-.5262.4821-1.0854.9253a19.7086,19.7086,0,0,1-2.1685,1.1628,22.8681,22.8681,0,0,1-4.8631,1.1407,27.5262,27.5262,0,0,1-9.0246-1.0414,45.8586,45.8586,0,0,1-8.7886-4.3183c-1.299-.7882-3.0744-.3071-4.2906.3467a11.4793,11.4793,0,0,0-4.2228,4.3794,11.2248,11.2248,0,0,0-1.6814,5.8468c.1009,1.4952.4542,3.0451,1.8451,3.8891,6.2684,3.8038,13.3628,6.6952,20.8281,6.1507a27.8619,27.8619,0,0,0,11.9359-3.3859,29.29,29.29,0,0,0,9.5784-8.98,28.6,28.6,0,0,0,5.0744-12.4079,25.0973,25.0973,0,0,0-.0994-7.4,19.4267,19.4267,0,0,0-1.8632-5.3777,21.4509,21.4509,0,0,0-6.5979-7.6389,27.5192,27.5192,0,0,0-10.1514-4.4319,46.1176,46.1176,0,0,0-11.9177-.992c-3.9894.0829-8.1465.3293-12.0534-.6638a7.5157,7.5157,0,0,1-.799-.3714l.0125-.0138a35.1926,35.1926,0,0,1,3.3478-2.8457,36.0572,36.0572,0,0,1,5.4112-2.9413,35.0418,35.0418,0,0,1,8.2886-2.02c.5143-.0347,1.0289-.0627,1.5447-.0756a6.9728,6.9728,0,0,0,4.5115-1.8261,12.9934,12.9934,0,0,0,3.6543-5.3194c.5693-1.67,1.12-3.7417.5012-5.4727-.4473-1.2512-1.3811-2.6979-2.9223-2.6591A41.4525,41.4525,0,0,0,1192.4291,332.8a39.62,39.62,0,0,0-3.4709,3.7891,32.114,32.114,0,0,0-3.683,6.2325,17.0257,17.0257,0,0,0-1.4227,4.7844,12.59,12.59,0,0,0,.3037,5.9618A8.6145,8.6145,0,0,0,1187.4739,357.9456Z" transform="translate(547.7169 466.447)"/><path class="cls-1" d="M1322.1751,462.5674c-98.0474-15.4043-198.14-11.9332-296.98-8.9552Q874.09,458.165,723.3093,469.7952c-27.8344,2.1475-55.6359,4.6584-83.46,6.9278-22.8032,1.86-45.739,3.1408-68.5693,1.6413.0759-2.6733-1.1474-4.598-4.3994-3.9449l-12.803,2.5714c-4.7773.96-11.8366,14.1864-4.2874,15.1467,24.9887,3.1785,50.2025,2.41,75.2641.5677,24.7673-1.8208,49.4942-4.2169,74.25-6.1977q75.33-6.0279,150.7881-10.2874c100.1169-5.6522,200.59-9.9356,300.8851-9.6533,15.7663.0444,31.5415.2825,47.3064.7977q-62.8028,3.2689-125.4847,8.4748c-83.0077,6.9767-165.7979,16.7488-247.9909,30.3433q-34.3063,5.6742-68.457,12.25c-21.0431,4.0685-42.2768,8.7572-61.2014,19.2229a12.5588,12.5588,0,0,0-5.7377,8.3711c-.4127,2.282.0073,5.934,2.9811,6.1518,54.4363,3.9873,109.0276,1.172,163.2906-3.9178,54.2774-5.0912,108.3073-12.4885,162.5718-17.7041,30.8129-2.9615,61.7094-5.1467,92.662-5.8414,3.9207-.088,6.8845-3.708,8.1658-7.1455.8114-2.1768,1.5389-8.2206-2.4211-8.1318-54.7529,1.229-109.2435,7.1874-163.6055,13.4659-54.0427,6.2417-108.1172,12.82-162.5081,15.0933-20.1826.8434-40.3914,1.078-60.5789.5057,6.2329-1.563,12.5341-2.8831,18.8178-4.1288,19.9046-3.946,39.8864-7.5292,59.8889-10.9407q60.9813-10.4008,122.3841-18.0882c81.5454-10.2871,163.48-17.267,245.5373-21.8474q69.8681-3.9,139.8325-5.6527c3.923-.1033,6.8807-3.6976,8.1657-7.1455C1325.6117,467.9747,1326.011,463.17,1322.1751,462.5674Z" transform="translate(547.7169 466.447)"/><path class="cls-1" d="M1265.4957,408.6676a6.8858,6.8858,0,0,0,4.5115-1.8261,12.9946,12.9946,0,0,0,3.6544-5.3194c.5692-1.67,1.12-3.7417.5011-5.4727-.4554-1.2739-1.373-2.6591-2.9223-2.6591a6.8858,6.8858,0,0,0-4.5115,1.8261,12.9934,12.9934,0,0,0-3.6543,5.3194c-.5693,1.67-1.12,3.7417-.5012,5.4727C1263.0289,407.2824,1263.9465,408.6676,1265.4957,408.6676Z" transform="translate(547.7169 466.447)"/><path class="cls-1" d="M1265.6922,367.8348a4.5268,4.5268,0,0,0,4.2906-.3467,11.5409,11.5409,0,0,0,4.2228-4.3794,11.2629,11.2629,0,0,0,1.6813-5.8468,121.8631,121.8631,0,0,1,4.284-41.7763q1.6515-5.654,3.7912-11.1468a9.1248,9.1248,0,0,0,.5012-5.4726,3.5014,3.5014,0,0,0-2.9223-2.6591c-3.8866-.1827-6.922,3.9578-8.1658,7.1455a144.51,144.51,0,0,0-9.7332,47.6029q-.2187,6.4961.2051,12.99C1263.94,365.38,1264.327,367.0467,1265.6922,367.8348Z" transform="translate(547.7169 466.447)"/></svg>