<svg id="Layer_1" data-name="Layer 1" xmlns="http://www.w3.org/2000/svg" width="1878.6101" height="1245.8934" viewBox="0 0 1878.6101 1245.8934"><defs><style>.cls-1{fill:#2e4ac0;}</style></defs><path class="cls-1" d="M1978.04,466.42l-.0277.089a10.7092,10.7092,0,0,1-.27,1.1609C1977.7044,468.131,1977.8222,468.1322,1978.04,466.42Z" transform="translate(-99.4301 104.0912)"/><path class="cls-1" d="M1357.0649,504.4112a585.7637,585.7637,0,0,0-58.7885-205.8681C1241.0022,182.8772,1147.4971,88.7282,1042.3582,27.57,939.7792-32.0985,822.4706-63.5444,706.4431-60.4475c2.3621-8.9027,3.8864-18.888,1.1-27.49-2.4527-7.5717-7.608-16.4271-16.08-16.1474C571.1605-100.11,451.5725-59.2452,352.5548,16.921c-51.8121,39.8548-98.7366,87.413-136.4782,143.5248-38.54,57.3-69.4508,121.2156-89.064,189.3258-19.0648,66.2071-29.3586,135.5366-27.33,205.1246,1.9868,68.1618,15.5822,135.7186,40.4869,198.136,49.35,123.682,134.4711,226.7887,240.0334,295.0822,99.7,64.5,217.4345,98.8113,333.0928,93.066,70.1449-3.4846,138.9883-19.6874,205.5506-43.917,56.5778-20.5952,112.1989-45.8515,164.291-77.88,106.6114-65.5486,199.53-161.5639,245.7617-288.3132C1354.83,659.9768,1364.27,580.5545,1357.0649,504.4112ZM108.9309,456.64c.416-4.0957,1.1625-10.003,0,0ZM950.4474,602.1221q-71.2416,47.5207-142.483,95.0419c-49.3388,32.9111-103.5728,67.2019-162.7351,63.0424-5.3657-.3773-10.9287-1.1541-15.4047-4.1373-9.3564-6.2365-10.5754-19.2647-10.8365-30.5059-3.4641-149.0794-.9858-443.3271,2.9177-447.2838.3661-.69,1.5189-1.4657,5.5856-1.4657a14.88,14.88,0,0,1,7.4558,2.0334c1.2421.5427,223.5225,134.454,328.0805,217.1145,14.408,11.39,29.63,24.8516,32.0288,43.0605C998.6129,566.0186,973.1,587.0119,950.4474,602.1221Z" transform="translate(-99.4301 104.0912)"/></svg>